Coordinates
nRows=124
nColumns=2
inDegrees=yes
endheader
time	ankle_angle_r	
3.14899	  9.690032	
3.22056	  9.839268	
3.29213	  9.771311	
3.3637	  9.701438	
3.43526	  9.758656	
3.50683	  9.806590	
3.5784	  9.740358	
3.64997	  9.627403	
3.72154	  9.650873	
3.7931	  9.739218	
3.86467	  9.709581	
3.93624	  9.662136	
4.00781	  9.727510	
4.07938	  9.752041	
4.15094	  9.659975	
4.22251	  9.685063	
4.29408	  9.805627	
4.36565	  9.817809	
4.43722	  9.733189	
4.50878	  9.694152	
4.58035	  9.757843	
4.65192	  9.765451	
4.72349	  9.711127	
4.79506	  9.728792	
4.86662	  9.798912	
4.93819	  9.787861	
5.00976	  9.701790	
5.08133	  9.749803	
5.1529	  9.831674	
5.22446	  9.772454	
5.29603	  9.726112	
5.3676	  9.789969	
5.43917	  9.839173	
5.51074	  9.765609	
5.5823	  9.710871	
5.65387	  9.775234	
5.72544	  9.826867	
5.79701	  9.771567	
5.86858	  9.744596	
5.94014	  9.851054	
6.01171	  9.864384	
6.08328	  9.764330	
6.15485	  9.760720	
6.22642	  9.814234	
6.29798	  9.801480	
6.36955	  9.726102	
6.44112	  9.739964	
6.51269	  9.801700	
6.58426	  9.765800	
6.65582	  9.723676	
6.72739	  9.753413	
6.79896	  9.792797	
6.87053	  9.718036	
6.9421	  9.598688	
7.01366	  9.638643	
7.08523	  9.745320	
7.1568	  9.712742	
7.22837	  9.672333	
7.29994	  9.763591	
7.3715	  9.804445	
7.44307	  9.765716	
7.51464	  9.763295	
7.58621	  9.809812	
7.65778	  9.798952	
7.72934	  9.664199	
7.80091	  9.643256	
7.87248	  9.723083	
7.94405	  9.709358	
8.01562	  9.692386	
8.08718	  9.714724	
8.15875	  9.763714	
8.23032	  9.774572	
8.30189	  9.740374	
8.37346	  9.759040	
8.44502	  9.765757	
8.51659	  9.712648	
8.58816	  9.685453	
8.65973	  9.725950	
8.7313	  9.739461	
8.80286	  9.714576	
8.87443	  9.720472	
8.946	  9.745100	
9.01757	  9.755055	
9.08914	  9.705560	
9.1607	  9.700290	
9.23227	  9.767566	
9.30384	  9.768808	
9.37541	  9.718715	
9.44698	  9.727217	
9.51854	  9.809661	
9.59011	  9.800494	
9.66168	  9.720311	
9.73325	  9.729727	
9.80482	  9.779964	
9.87638	  9.782272	
9.94795	  9.692687	
10.0195	  9.651471	
10.0911	  9.728249	
10.1627	  9.744115	
10.2342	  9.695762	
10.3058	  9.713451	
10.3774	  9.733873	
10.4489	  9.668750	
10.5205	  9.678055	
10.5921	  9.770572	
10.6636	  9.784169	
10.7352	  9.718735	
10.8068	  9.646417	
10.8783	  9.708531	
10.9499	  9.807724	
11.0215	  9.736987	
11.093	  9.679520	
11.1646	  9.761643	
11.2362	  9.763637	
11.3077	  9.671196	
11.3793	  9.710318	
11.4509	  9.803486	
11.5224	  9.781351	
11.594	  9.702653	
11.6656	  9.700929	
11.7372	  9.803643	
11.8087	  9.764345	
11.8803	  9.634737	
11.9519	  9.780604	
